<?xml version="1.0" encoding="UTF-8" standalone="no"?>
<!-- Created with Inkscape (http://www.inkscape.org/) -->
<svg
   xmlns:dc="http://purl.org/dc/elements/1.1/"
   xmlns:cc="http://creativecommons.org/ns#"
   xmlns:rdf="http://www.w3.org/1999/02/22-rdf-syntax-ns#"
   xmlns:svg="http://www.w3.org/2000/svg"
   xmlns="http://www.w3.org/2000/svg"
   xmlns:xlink="http://www.w3.org/1999/xlink"
   xmlns:sodipodi="http://sodipodi.sourceforge.net/DTD/sodipodi-0.dtd"
   xmlns:inkscape="http://www.inkscape.org/namespaces/inkscape"
   width="480"
   height="480"
   id="svg2"
   sodipodi:version="0.32"
   inkscape:version="0.46"
   version="1.0"
   sodipodi:docname="chessboard2.svg"
   inkscape:output_extension="org.inkscape.output.svg.inkscape">
  <defs
     id="defs4">
    <linearGradient
       inkscape:collect="always"
       id="linearGradient3199">
      <stop
         style="stop-color:#ffffff;stop-opacity:1;"
         offset="0"
         id="stop3201" />
      <stop
         style="stop-color:#ffffff;stop-opacity:0;"
         offset="1"
         id="stop3203" />
    </linearGradient>
    <linearGradient
       inkscape:collect="always"
       id="linearGradient3186">
      <stop
         style="stop-color:#ffffff;stop-opacity:1;"
         offset="0"
         id="stop3188" />
      <stop
         style="stop-color:#ffffff;stop-opacity:0;"
         offset="1"
         id="stop3190" />
    </linearGradient>
    <linearGradient
       inkscape:collect="always"
       id="linearGradient3599">
      <stop
         style="stop-color:#ffffff;stop-opacity:1;"
         offset="0"
         id="stop3601" />
      <stop
         style="stop-color:#ffffff;stop-opacity:0;"
         offset="1"
         id="stop3603" />
    </linearGradient>
    <linearGradient
       inkscape:collect="always"
       id="linearGradient3576">
      <stop
         style="stop-color:#ffffff;stop-opacity:1;"
         offset="0"
         id="stop3578" />
      <stop
         style="stop-color:#ffffff;stop-opacity:0;"
         offset="1"
         id="stop3580" />
    </linearGradient>
    <linearGradient
       id="linearGradient3479">
      <stop
         style="stop-color:#e9ddaf;stop-opacity:1;"
         offset="0"
         id="stop3481" />
      <stop
         id="stop3487"
         offset="0.94999999"
         style="stop-color:#a0882c;stop-opacity:1;" />
      <stop
         style="stop-color:#d3bb5f;stop-opacity:1;"
         offset="1"
         id="stop3483" />
    </linearGradient>
    <linearGradient
       id="linearGradient3469">
      <stop
         style="stop-color:#a0892c;stop-opacity:1;"
         offset="0"
         id="stop3471" />
      <stop
         id="stop3477"
         offset="0.94999999"
         style="stop-color:#504515;stop-opacity:1;" />
      <stop
         style="stop-color:#796721;stop-opacity:1;"
         offset="1"
         id="stop3473" />
    </linearGradient>
    <inkscape:perspective
       sodipodi:type="inkscape:persp3d"
       inkscape:vp_x="0 : 526.18109 : 1"
       inkscape:vp_y="0 : 1000 : 0"
       inkscape:vp_z="744.09448 : 526.18109 : 1"
       inkscape:persp3d-origin="372.04724 : 350.78739 : 1"
       id="perspective10" />
    <linearGradient
       inkscape:collect="always"
       xlink:href="#linearGradient3469"
       id="linearGradient3475"
       x1="240"
       y1="0"
       x2="240"
       y2="480"
       gradientUnits="userSpaceOnUse" />
    <linearGradient
       inkscape:collect="always"
       xlink:href="#linearGradient3479"
       id="linearGradient3485"
       x1="240"
       y1="0"
       x2="240"
       y2="480"
       gradientUnits="userSpaceOnUse" />
    <linearGradient
       inkscape:collect="always"
       xlink:href="#linearGradient3469"
       id="linearGradient3515"
       gradientUnits="userSpaceOnUse"
       x1="240"
       y1="0"
       x2="240"
       y2="480" />
    <linearGradient
       inkscape:collect="always"
       xlink:href="#linearGradient3479"
       id="linearGradient3517"
       gradientUnits="userSpaceOnUse"
       x1="240"
       y1="0"
       x2="240"
       y2="480" />
    <linearGradient
       inkscape:collect="always"
       xlink:href="#linearGradient3479"
       id="linearGradient3520"
       gradientUnits="userSpaceOnUse"
       x1="240"
       y1="0"
       x2="240"
       y2="480" />
    <linearGradient
       inkscape:collect="always"
       xlink:href="#linearGradient3469"
       id="linearGradient3523"
       gradientUnits="userSpaceOnUse"
       x1="240"
       y1="0"
       x2="240"
       y2="480" />
    <linearGradient
       inkscape:collect="always"
       xlink:href="#linearGradient3469"
       id="linearGradient3531"
       gradientUnits="userSpaceOnUse"
       x1="240"
       y1="0"
       x2="240"
       y2="480" />
    <linearGradient
       inkscape:collect="always"
       xlink:href="#linearGradient3469"
       id="linearGradient3538"
       gradientUnits="userSpaceOnUse"
       x1="240"
       y1="0"
       x2="240"
       y2="480" />
    <linearGradient
       inkscape:collect="always"
       xlink:href="#linearGradient3479"
       id="linearGradient3540"
       gradientUnits="userSpaceOnUse"
       x1="240"
       y1="0"
       x2="240"
       y2="480" />
    <linearGradient
       inkscape:collect="always"
       xlink:href="#linearGradient3479"
       id="linearGradient3543"
       gradientUnits="userSpaceOnUse"
       x1="240"
       y1="0"
       x2="240"
       y2="480" />
    <linearGradient
       inkscape:collect="always"
       xlink:href="#linearGradient3479"
       id="linearGradient3556"
       gradientUnits="userSpaceOnUse"
       x1="240"
       y1="0"
       x2="240"
       y2="480" />
    <linearGradient
       inkscape:collect="always"
       xlink:href="#linearGradient3469"
       id="linearGradient3558"
       gradientUnits="userSpaceOnUse"
       x1="240"
       y1="0"
       x2="240"
       y2="480" />
    <linearGradient
       inkscape:collect="always"
       xlink:href="#linearGradient3469"
       id="linearGradient3561"
       gradientUnits="userSpaceOnUse"
       x1="240"
       y1="0"
       x2="240"
       y2="480" />
    <linearGradient
       inkscape:collect="always"
       xlink:href="#linearGradient3479"
       id="linearGradient3564"
       gradientUnits="userSpaceOnUse"
       x1="240"
       y1="0"
       x2="240"
       y2="480" />
    <linearGradient
       inkscape:collect="always"
       xlink:href="#linearGradient3576"
       id="linearGradient3582"
       x1="270"
       y1="287.71982"
       x2="57"
       y2="21"
       gradientUnits="userSpaceOnUse" />
    <linearGradient
       inkscape:collect="always"
       xlink:href="#linearGradient3599"
       id="linearGradient3605"
       x1="240"
       y1="310"
       x2="240"
       y2="0"
       gradientUnits="userSpaceOnUse"
       gradientTransform="translate(0,-70)" />
    <radialGradient
       inkscape:collect="always"
       xlink:href="#linearGradient3186"
       id="radialGradient3194"
       cx="240"
       cy="375.52911"
       fx="240"
       fy="375.52911"
       r="240"
       gradientTransform="matrix(1.5007075,0,0,1.1294095,-120.1698,-153.06787)"
       gradientUnits="userSpaceOnUse" />
    <linearGradient
       inkscape:collect="always"
       xlink:href="#linearGradient3199"
       id="linearGradient3205"
       x1="240"
       y1="240"
       x2="0"
       y2="0"
       gradientUnits="userSpaceOnUse" />
    <linearGradient
       inkscape:collect="always"
       xlink:href="#linearGradient3199"
       id="linearGradient3222"
       gradientUnits="userSpaceOnUse"
       x1="240"
       y1="240"
       x2="0"
       y2="0" />
  </defs>
  <sodipodi:namedview
     id="base"
     pagecolor="#ffffff"
     bordercolor="#666666"
     borderopacity="1.0"
     inkscape:pageopacity="0.0"
     inkscape:pageshadow="2"
     inkscape:zoom="1"
     inkscape:cx="287.74536"
     inkscape:cy="220.64815"
     inkscape:document-units="px"
     inkscape:current-layer="layer1"
     showgrid="false"
     inkscape:window-width="1270"
     inkscape:window-height="724"
     inkscape:window-x="0"
     inkscape:window-y="24">
    <inkscape:grid
       type="xygrid"
       id="grid3574"
       visible="true"
       enabled="true" />
  </sodipodi:namedview>
  <metadata
     id="metadata7">
    <rdf:RDF>
      <cc:Work
         rdf:about="">
        <dc:format>image/svg+xml</dc:format>
        <dc:type
           rdf:resource="http://purl.org/dc/dcmitype/StillImage" />
      </cc:Work>
    </rdf:RDF>
  </metadata>
  <g
     inkscape:label="Ebene 1"
     inkscape:groupmode="layer"
     id="layer1">
    <g
       id="g3213">
      <path
         style="fill:url(#linearGradient3543);fill-opacity:1;stroke:none;stroke-linecap:round"
         d="M 15 0 C 6.69 0 0 6.69 0 15 L 0 60 L 60 60 L 60 0 L 15 0 z M 60 60 L 60 120 L 120 120 L 120 60 L 60 60 z M 120 60 L 180 60 L 180 0 L 120 0 L 120 60 z M 180 60 L 180 120 L 240 120 L 240 60 L 180 60 z M 240 60 L 300 60 L 300 0 L 240 0 L 240 60 z M 300 60 L 300 120 L 360 120 L 360 60 L 300 60 z M 360 60 L 420 60 L 420 0 L 360 0 L 360 60 z M 420 60 L 420 120 L 480 120 L 480 60 L 420 60 z M 420 120 L 360 120 L 360 180 L 420 180 L 420 120 z M 420 180 L 420 240 L 480 240 L 480 180 L 420 180 z M 420 240 L 360 240 L 360 300 L 420 300 L 420 240 z M 420 300 L 420 360 L 480 360 L 480 300 L 420 300 z M 420 360 L 360 360 L 360 420 L 420 420 L 420 360 z M 420 420 L 420 480 L 465 480 C 473.31 480 480 473.31 480 465 L 480 420 L 420 420 z M 360 420 L 300 420 L 300 480 L 360 480 L 360 420 z M 300 420 L 300 360 L 240 360 L 240 420 L 300 420 z M 240 420 L 180 420 L 180 480 L 240 480 L 240 420 z M 180 420 L 180 360 L 120 360 L 120 420 L 180 420 z M 120 420 L 60 420 L 60 480 L 120 480 L 120 420 z M 60 420 L 60 360 L 0 360 L 0 420 L 60 420 z M 60 360 L 120 360 L 120 300 L 60 300 L 60 360 z M 60 300 L 60 240 L 0 240 L 0 300 L 60 300 z M 60 240 L 120 240 L 120 180 L 60 180 L 60 240 z M 60 180 L 60 120 L 0 120 L 0 180 L 60 180 z M 120 180 L 180 180 L 180 120 L 120 120 L 120 180 z M 180 180 L 180 240 L 240 240 L 240 180 L 180 180 z M 240 180 L 300 180 L 300 120 L 240 120 L 240 180 z M 300 180 L 300 240 L 360 240 L 360 180 L 300 180 z M 300 240 L 240 240 L 240 300 L 300 300 L 300 240 z M 300 300 L 300 360 L 360 360 L 360 300 L 300 300 z M 240 300 L 180 300 L 180 360 L 240 360 L 240 300 z M 180 300 L 180 240 L 120 240 L 120 300 L 180 300 z "
         id="path3215" />
      <path
         style="fill:url(#linearGradient3538);fill-opacity:1;stroke:none;stroke-linecap:round"
         d="M 60,0 L 60,60 L 120,60 L 120,0 L 60,0 z M 120,60 L 120,120 L 180,120 L 180,60 L 120,60 z M 180,60 L 240,60 L 240,0 L 180,0 L 180,60 z M 240,60 L 240,120 L 300,120 L 300,60 L 240,60 z M 300,60 L 360,60 L 360,0 L 300,0 L 300,60 z M 360,60 L 360,120 L 420,120 L 420,60 L 360,60 z M 420,60 L 480,60 L 480,15 C 480,6.69 473.31,0 465,0 L 420,0 L 420,60 z M 420,120 L 420,180 L 480,180 L 480,120 L 420,120 z M 420,180 L 360,180 L 360,240 L 420,240 L 420,180 z M 420,240 L 420,300 L 480,300 L 480,240 L 420,240 z M 420,300 L 360,300 L 360,360 L 420,360 L 420,300 z M 420,360 L 420,420 L 480,420 L 480,360 L 420,360 z M 420,420 L 360,420 L 360,480 L 420,480 L 420,420 z M 360,420 L 360,360 L 300,360 L 300,420 L 360,420 z M 300,420 L 240,420 L 240,480 L 300,480 L 300,420 z M 240,420 L 240,360 L 180,360 L 180,420 L 240,420 z M 180,420 L 120,420 L 120,480 L 180,480 L 180,420 z M 120,420 L 120,360 L 60,360 L 60,420 L 120,420 z M 60,420 L 0,420 L 0,465 C 0,473.31 6.69,480 15,480 L 60,480 L 60,420 z M 60,360 L 60,300 L 0,300 L 0,360 L 60,360 z M 60,300 L 120,300 L 120,240 L 60,240 L 60,300 z M 60,240 L 60,180 L 0,180 L 0,240 L 60,240 z M 60,180 L 120,180 L 120,120 L 60,120 L 60,180 z M 60,120 L 60,60 L 0,60 L 0,120 L 60,120 z M 120,180 L 120,240 L 180,240 L 180,180 L 120,180 z M 180,180 L 240,180 L 240,120 L 180,120 L 180,180 z M 240,180 L 240,240 L 300,240 L 300,180 L 240,180 z M 300,180 L 360,180 L 360,120 L 300,120 L 300,180 z M 300,240 L 300,300 L 360,300 L 360,240 L 300,240 z M 300,300 L 240,300 L 240,360 L 300,360 L 300,300 z M 240,300 L 240,240 L 180,240 L 180,300 L 240,300 z M 180,300 L 120,300 L 120,360 L 180,360 L 180,300 z"
         id="path3217" />
    </g>
    <path
       style="opacity:0.14999999999999999;fill:url(#linearGradient3222);stroke:none;stroke-linecap:round;fill-opacity:1"
       d="M 16 0 C 7.136 0 0 7.136 0 16 L 0 464 C 0 470.94252 4.3745367 476.80715 10.53125 479.03125 C 97.309644 160.34092 439.24076 140.16027 479.84375 13.875 C 478.80195 6.0323292 472.13648 0 464 0 L 16 0 z "
       id="rect3196" />
  </g>
</svg>
